<?xml version="1.0" standalone="no"?>
<!DOCTYPE svg PUBLIC "-//W3C//DTD SVG 20010904//EN"
 "http://www.w3.org/TR/2001/REC-SVG-20010904/DTD/svg10.dtd">
<svg version="1.0" xmlns="http://www.w3.org/2000/svg"
 width="185.000000pt" height="104.000000pt" viewBox="0 0 185.000000 104.000000"
 preserveAspectRatio="xMidYMid meet">
<metadata>
Created by potrace 1.16, written by Peter Selinger 2001-2019
</metadata>
<g transform="translate(0.000000,104.000000) scale(0.100000,-0.100000)"
fill="#ffffff" stroke="none">
<path d="M284 981 c-45 -28 -62 -73 -73 -202 -12 -138 -22 -164 -73 -186 -21
-9 -38 -22 -38 -29 0 -7 -2 -18 -5 -26 -3 -8 8 -19 28 -28 20 -9 33 -24 35
-38 2 -12 -11 -83 -28 -156 -29 -119 -31 -136 -19 -162 17 -35 52 -54 100 -54
30 0 38 4 43 23 9 34 8 37 -15 37 -37 0 -59 19 -59 50 0 16 11 73 25 126 25
96 31 159 17 180 -4 6 -18 17 -30 23 l-24 13 33 16 c52 27 67 63 79 197 13
140 26 168 82 173 31 3 36 7 40 33 4 28 4 29 -41 29 -27 0 -59 -8 -77 -19z"/>
<path d="M1637 963 c-4 -3 -7 -17 -7 -29 0 -18 6 -23 31 -26 55 -5 57 -22 21
-173 -29 -118 -31 -139 -20 -162 7 -15 23 -32 35 -38 21 -11 21 -12 -11 -29
-51 -27 -64 -60 -80 -205 -8 -73 -20 -139 -27 -147 -6 -8 -29 -17 -49 -20 -36
-6 -49 -21 -50 -56 0 -12 65 -10 97 3 71 26 86 62 102 232 11 121 24 151 77
173 45 19 47 57 4 79 -38 20 -39 56 -5 180 34 122 33 177 -1 204 -26 20 -102
30 -117 14z"/>
<path d="M520 511 l0 -219 33 -48 c17 -27 51 -63 75 -81 l44 -33 -81 0 c-74 0
-81 -2 -81 -20 0 -20 5 -20 367 -18 341 3 368 4 371 21 3 15 -6 17 -74 17
l-77 0 39 26 c21 14 55 43 74 64 27 29 45 39 76 43 55 6 89 30 122 86 23 39
27 57 27 121 -1 118 -45 183 -143 209 -31 9 -42 17 -42 31 0 20 -9 20 -365 20
l-365 0 0 -219z m700 -10 l0 -199 -32 -48 c-18 -27 -51 -59 -73 -71 -38 -21
-51 -23 -231 -23 l-192 0 -48 33 c-81 55 -88 79 -92 310 l-3 197 335 0 336 0
0 -199z m133 111 c40 -36 57 -81 57 -144 0 -93 -50 -163 -126 -175 -33 -5 -36
-4 -32 17 2 16 14 27 38 35 47 16 80 66 80 122 0 63 -23 101 -76 124 -24 11
-44 22 -44 24 0 2 3 11 6 20 10 24 60 12 97 -23z"/>
</g>
</svg>
